<?xml version="1.0" encoding="utf-8"?>
<!-- Generator: Adobe Illustrator 23.1.1, SVG Export Plug-In . SVG Version: 6.00 Build 0)  -->
<svg version="1.1" id="Layer_1" xmlns="http://www.w3.org/2000/svg" xmlns:xlink="http://www.w3.org/1999/xlink" x="0px" y="0px"
	 viewBox="0 0 612 792" style="enable-background:new 0 0 612 792;" xml:space="preserve">
<style type="text/css">
	.st0{fill:#475BA9;}
</style>
<path class="st0" d="M638.6,400.6l-18.4-11.2l17.3-17.9l3.9-16.7l-4.5-20.1l-12.8-14l-15.6-10.9h-94.9v130.9l-46.9-130.9h-45.2
	l-34,103h-19l-40-103H290c0,0-34.5,103.6-37.9,103c-3.3-0.6-7.5-0.6-7.5-0.6l-27.3-102.4H178l-27.7,115.8L108,309.9H-37v172h202.9
	L199,355.4l31.1,126.5H268l23-69.6l20.1-60.8l22.4,60.8h-42.5l-9.6,29h62.7l14.9,40.5h40.2l14.1-40.5h64.5l-2-2.8l15.6,43.3h116.7
	l20.7-8.2l12.8-14.5l6.7-20.1v-22.4L638.6,400.6z M-4.9,450.3v-44.7h83.2l0.6-30.1H-4.9v-37.4h86.5l38,112.2H-4.9z M423.3,412.3
	l21.1-60.8l21.9,60.8H423.3z M546,338.1h51.9l7.3,10.6l2.2,9.5l-3.3,11.2l-8.4,8.9H546V338.1z M609.6,443.6l-9.5,6.7H546v-43.5h53.6
	l11.2,11.2l2.8,10.6L609.6,443.6z"/>
</svg>
